<svg xmlns="http://www.w3.org/2000/svg" width="300" height="48" viewBox="0 0 300 48" role="img" aria-label="Telegram @dreamdrainer">
<title>Telegram @dreamdrainer</title>
<defs><path id="m50" d="M250 0H350V-571H561V-655H39V-571H250Z"/><path id="m51" d="M109 0H531V-84H209V-300H473V-384H209V-571H521V-655H109Z"/><path id="m52" d="M127 0H541V-84H226V-655H127Z"/><path id="m53" d="M339 12C423 12 495 -23 537 -65V-347H324V-265H445V-109C423 -88 385 -75 345 -75C222 -75 154 -172 154 -329C154 -484 231 -580 344 -580C404 -580 441 -556 472 -523L528 -586C489 -626 431 -667 344 -667C175 -667 51 -540 51 -326C51 -111 173 12 339 12Z"/><path id="m54" d="M92 0H192V-266H299L448 0H561L400 -279C483 -304 538 -365 538 -466C538 -607 438 -655 303 -655H92ZM192 -347V-575H291C387 -575 439 -546 439 -466C439 -386 387 -347 291 -347Z"/><path id="m55" d="M235 -357C256 -428 277 -501 296 -575H300C319 -501 341 -428 362 -357L389 -267H208ZM26 0H128L184 -188H412L468 0H574L358 -655H242Z"/><path id="m56" d="M68 0H158V-295C158 -362 149 -486 142 -546H145L185 -405L267 -174H329L412 -405L453 -546H456C451 -486 440 -362 440 -295V0H532V-655H416L331 -388L302 -286H298L269 -388L184 -655H68Z"/><path id="m57" d="M300 -256C351 -256 390 -294 390 -349C390 -403 351 -442 300 -442C249 -442 210 -403 210 -349C210 -294 249 -256 300 -256Z"/><path id="m58" d="M126 0H226V-283H489V-368H226V-571H536V-655H126Z"/><path id="m59" d="M303 12C452 12 541 -74 541 -179C541 -275 479 -322 397 -354L308 -393C250 -416 194 -437 194 -494C194 -547 240 -580 309 -580C376 -580 424 -558 467 -521L519 -585C468 -635 395 -667 314 -667C184 -667 93 -590 93 -488C93 -392 166 -343 233 -317L325 -276C391 -249 439 -231 439 -167C439 -113 392 -75 309 -75C237 -75 171 -106 121 -153L63 -85C125 -24 209 12 303 12Z"/><path id="m5a" d="M95 0H195V-250H302C444 -250 547 -316 547 -458C547 -605 446 -655 302 -655H95ZM195 -331V-575H292C396 -575 448 -545 448 -458C448 -371 398 -331 292 -331Z"/><path id="m5b" d="M250 0H350V-230L567 -655H464L377 -470C353 -419 329 -370 304 -318H300C275 -370 253 -419 229 -470L139 -655H33L250 -230Z"/><path id="l7c" d="M519 206C598 206 687 189 748 158L716 66C653 97 582 110 519 110C297 110 151 -41 151 -254C151 -463 300 -615 523 -615C745 -615 895 -475 895 -272C895 -156 867 -103 821 -103C794 -103 773 -119 773 -167V-491H637V-433C601 -475 548 -498 483 -498C353 -498 252 -396 252 -246C252 -95 354 7 483 7C562 7 619 -24 654 -80C675 -23 724 7 791 7C914 7 996 -95 996 -274C996 -525 804 -710 523 -710C232 -710 39 -515 39 -254C39 10 230 206 519 206ZM514 -108C441 -108 390 -160 390 -246C390 -331 441 -382 514 -382C586 -382 639 -333 639 -246C639 -158 586 -108 514 -108Z"/><path id="l7d" d="M303 8C375 8 432 -15 471 -62V0H620V-742H464V-481C424 -525 369 -546 303 -546C151 -546 34 -438 34 -269C34 -100 151 8 303 8ZM330 -120C252 -120 192 -176 192 -269C192 -362 252 -418 330 -418C407 -418 467 -362 467 -269C467 -176 407 -120 330 -120Z"/><path id="l7e" d="M72 0H228V-254C228 -357 285 -404 371 -404C383 -404 393 -403 406 -402V-546C323 -546 259 -519 221 -467V-538H72Z"/><path id="l7f" d="M339 8C436 8 511 -22 561 -79L478 -169C441 -134 400 -117 343 -117C261 -117 204 -158 189 -225H596C597 -238 599 -255 599 -267C599 -440 477 -546 319 -546C155 -546 32 -430 32 -269C32 -109 153 8 339 8ZM188 -316C199 -384 249 -428 320 -428C390 -428 441 -384 452 -316Z"/><path id="l710" d="M402 0H548V-307C548 -470 453 -546 289 -546C203 -546 116 -523 57 -481L113 -372C152 -403 211 -422 268 -422C352 -422 392 -383 392 -316H268C104 -316 37 -250 37 -155C37 -62 112 8 238 8C317 8 372 -18 402 -66ZM392 -170C374 -121 329 -97 277 -97C222 -97 189 -123 189 -162C189 -198 212 -225 285 -225H392Z"/><path id="l711" d="M72 0H228V-270C228 -366 277 -411 346 -411C411 -411 448 -371 448 -284V0H604V-270C604 -366 653 -411 723 -411C786 -411 825 -371 825 -284V0H981V-308C981 -472 889 -546 761 -546C680 -546 610 -513 567 -458C530 -517 465 -546 390 -546C321 -546 261 -522 221 -476V-538H72Z"/><path id="l712" d="M72 0H228V-538H72ZM150 -613C209 -613 248 -651 248 -703C248 -751 208 -787 150 -787C93 -787 53 -749 53 -700C53 -651 93 -613 150 -613Z"/><path id="l713" d="M72 0H228V-266C228 -365 282 -411 357 -411C426 -411 466 -371 466 -284V0H622V-308C622 -472 526 -546 399 -546C326 -546 263 -521 221 -474V-538H72Z"/></defs>
<rect x="0" y="0" width="292" height="48" fill="#161b22"/>
<rect x="0" y="0" width="48" height="48" fill="#c8102e"/>
<path d="M11.944 0A12 12 0 0 0 0 12a12 12 0 0 0 12 12 12 12 0 0 0 12-12A12 12 0 0 0 12 0a12 12 0 0 0-.056 0zm4.962 7.224c.1-.002.321.023.465.14a.506.506 0 0 1 .171.325c.016.093.036.306.02.472-.18 1.898-.962 6.502-1.36 8.627-.168.9-.499 1.201-.82 1.23-.696.065-1.225-.46-1.9-.902-1.056-.693-1.653-1.124-2.678-1.8-1.185-.78-.417-1.21.258-1.91.177-.184 3.247-2.977 3.307-3.23.007-.032.014-.15-.056-.212s-.174-.041-.249-.024c-.106.024-1.793 1.14-5.061 3.345-.48.33-.913.49-1.302.48-.428-.008-1.252-.241-1.865-.44-.752-.245-1.349-.374-1.297-.789.027-.216.325-.437.893-.663 3.498-1.524 5.83-2.529 6.998-3.014 3.332-1.386 4.025-1.627 4.476-1.635z" transform="translate(13 13) scale(.9167)" fill="#f3ede4"/>
<g transform="translate(62 19) scale(0.01100)" fill="#9198a1"><use href="#m50" x="0"/><use href="#m51" x="736"/><use href="#m52" x="1473"/><use href="#m51" x="2209"/><use href="#m53" x="2945"/><use href="#m54" x="3682"/><use href="#m55" x="4418"/><use href="#m56" x="5155"/><use href="#m57" x="6627"/><use href="#m58" x="8100"/><use href="#m55" x="8836"/><use href="#m59" x="9573"/><use href="#m50" x="10309"/><use href="#m51" x="11045"/><use href="#m59" x="11782"/><use href="#m50" x="12518"/><use href="#m54" x="13991"/><use href="#m51" x="14727"/><use href="#m5a" x="15464"/><use href="#m52" x="16200"/><use href="#m5b" x="16936"/></g>
<g transform="translate(62 37) scale(0.01349)" fill="#f3ede4"><use href="#l7c" x="0"/><use href="#l7d" x="1035"/><use href="#l7e" x="1727"/><use href="#l7f" x="2149"/><use href="#l710" x="2765"/><use href="#l711" x="3382"/><use href="#l7d" x="4435"/><use href="#l7e" x="5127"/><use href="#l710" x="5519"/><use href="#l712" x="6136"/><use href="#l713" x="6437"/><use href="#l7f" x="7132"/><use href="#l7e" x="7763"/></g>
<path d="M272 18 l6 6 l-6 6" fill="none" stroke="#ef454a" stroke-width="2" stroke-linecap="round" stroke-linejoin="round"/>
<rect x="0.75" y=".75" width="290.5" height="46.5" fill="none" stroke="#f3ede4" stroke-opacity="0.55" stroke-width="1.5"/>
</svg>
