<svg xmlns="http://www.w3.org/2000/svg" width="900" height="56" viewBox="0 0 900 56" role="img" aria-label="Next episode: contact">
<title>Next episode: contact</title>
<style>@keyframes cut{0%{transform:translateX(-160px)}100%{transform:translateX(1100px)}}.cut{animation:cut 1.1s cubic-bezier(.3,0,.2,1) .2s both}</style>
<defs><path id="s90" d="M414 -850C385 -691 324 -536 238 -446C276 -429 345 -391 376 -368C458 -473 527 -643 565 -823ZM610 -549H531V-452C531 -328 456 -129 204 -28C229 -2 275 61 292 95C473 15 582 -140 609 -227C630 -139 729 21 891 95C914 58 957 -3 985 -38C752 -140 686 -332 686 -453V-549ZM22 -170 115 -44C184 -114 265 -202 331 -284L248 -409C166 -317 77 -224 22 -170ZM49 -688C108 -645 186 -581 219 -537L329 -657C291 -700 210 -758 152 -796ZM480 -686 407 -541H868V-686ZM820 -686V-655C806 -575 766 -469 735 -408C769 -395 828 -365 858 -349C899 -423 947 -526 977 -630L869 -694L841 -686Z"/><path id="s91" d="M422 -454H561V-312H422ZM285 -580V-187H707V-580ZM65 -825V95H216V-676H777V95H936V-825ZM151 -94V41H867V-94Z"/><path id="s92" d="M431 -357V-61C431 -46 425 -43 405 -42C385 -42 307 -42 253 -45C274 -7 298 54 306 95C391 95 460 93 513 73C567 53 583 16 583 -56V-357ZM142 -798V-665H746V-798ZM691 -798V-767C653 -714 554 -627 470 -579C494 -556 537 -511 557 -482C666 -543 781 -639 867 -723L763 -806L730 -798ZM43 -468V-330H849V-468ZM283 -530C395 -491 566 -427 647 -390L724 -515C636 -551 460 -608 355 -640ZM801 -468V-445C779 -373 735 -284 697 -227L822 -155C876 -227 934 -330 973 -427L853 -478L828 -468Z"/><path id="s93" d="M57 -510V-375H944V-510ZM227 -733V-601H889V-733ZM241 -83V51H773V-83ZM450 -855V-427H605V-855ZM166 -319V95H316V-186H701V91H858V-319ZM206 -856C173 -750 111 -641 39 -577C75 -560 141 -523 172 -500C239 -575 311 -698 352 -820Z"/><path id="l94" d="M57 0H287V-318L553 0H747V-700H517V-382L251 -700H57Z"/><path id="l95" d="M57 0H639V-178H289V-270H585V-440H289V-522H626V-700H57Z"/><path id="l96" d="M-8 0H261L379 -187L500 0H770L512 -362L755 -700H501L385 -524L266 -700H1L245 -353Z"/><path id="l97" d="M209 0H445V-517H650V-700H4V-517H209Z"/><path id="l98" d="M57 0H293V-172H394C589 -172 713 -274 713 -436C713 -598 589 -700 394 -700H57ZM293 -354V-518H379C444 -518 475 -487 475 -436C475 -385 444 -354 379 -354Z"/><path id="l99" d="M57 0H293V-700H57Z"/><path id="l9a" d="M318 16C535 16 644 -92 644 -220C644 -478 257 -408 257 -492C257 -516 279 -536 348 -536C409 -536 474 -519 543 -484L614 -655C541 -696 444 -716 350 -716C133 -716 24 -610 24 -480C24 -219 411 -290 411 -202C411 -178 387 -164 320 -164C243 -164 155 -189 89 -228L13 -56C83 -13 201 16 318 16Z"/><path id="l9b" d="M424 16C652 16 819 -138 819 -350C819 -562 652 -716 424 -716C196 -716 29 -562 29 -350C29 -138 196 16 424 16ZM424 -175C337 -175 267 -241 267 -350C267 -459 337 -525 424 -525C511 -525 581 -459 581 -350C581 -241 511 -175 424 -175Z"/><path id="l9c" d="M57 0H402C636 0 797 -133 797 -350C797 -567 636 -700 402 -700H57ZM293 -184V-516H392C491 -516 559 -457 559 -350C559 -243 491 -184 392 -184Z"/><path id="m5d" d="M250 0H350V-571H561V-655H39V-571H250Z"/><path id="m5e" d="M109 0H531V-84H209V-300H473V-384H209V-571H521V-655H109Z"/><path id="m5f" d="M127 0H541V-84H226V-655H127Z"/><path id="m510" d="M339 12C423 12 495 -23 537 -65V-347H324V-265H445V-109C423 -88 385 -75 345 -75C222 -75 154 -172 154 -329C154 -484 231 -580 344 -580C404 -580 441 -556 472 -523L528 -586C489 -626 431 -667 344 -667C175 -667 51 -540 51 -326C51 -111 173 12 339 12Z"/><path id="m511" d="M92 0H192V-266H299L448 0H561L400 -279C483 -304 538 -365 538 -466C538 -607 438 -655 303 -655H92ZM192 -347V-575H291C387 -575 439 -546 439 -466C439 -386 387 -347 291 -347Z"/><path id="m512" d="M235 -357C256 -428 277 -501 296 -575H300C319 -501 341 -428 362 -357L389 -267H208ZM26 0H128L184 -188H412L468 0H574L358 -655H242Z"/><path id="m513" d="M68 0H158V-295C158 -362 149 -486 142 -546H145L185 -405L267 -174H329L412 -405L453 -546H456C451 -486 440 -362 440 -295V0H532V-655H416L331 -388L302 -286H298L269 -388L184 -655H68Z"/><path id="m514" d="M300 -256C351 -256 390 -294 390 -349C390 -403 351 -442 300 -442C249 -442 210 -403 210 -349C210 -294 249 -256 300 -256Z"/><path id="m515" d="M90 0H510V-84H350V-571H510V-655H90V-571H250V-84H90Z"/><path id="m516" d="M78 0H174V-314C174 -384 164 -459 160 -527H163L224 -389L415 0H522V-655H426V-343C426 -272 436 -194 440 -128H437L376 -266L185 -655H78Z"/><path id="m517" d="M303 12C452 12 541 -74 541 -179C541 -275 479 -322 397 -354L308 -393C250 -416 194 -437 194 -494C194 -547 240 -580 309 -580C376 -580 424 -558 467 -521L519 -585C468 -635 395 -667 314 -667C184 -667 93 -590 93 -488C93 -392 166 -343 233 -317L325 -276C391 -249 439 -231 439 -167C439 -113 392 -75 309 -75C237 -75 171 -106 121 -153L63 -85C125 -24 209 12 303 12Z"/><path id="m518" d="M90 0H191V-201L294 -328L472 0H584L356 -403L561 -655H448L194 -342H191V-655H90Z"/><path id="m519" d="M300 12C450 12 555 -113 555 -330C555 -544 450 -667 300 -667C150 -667 45 -544 45 -330C45 -113 150 12 300 12ZM300 -75C209 -75 148 -169 148 -330C148 -488 209 -580 300 -580C391 -580 452 -488 452 -330C452 -169 391 -75 300 -75Z"/></defs>
<rect width="900" height="56" fill="#120d10"/>
<rect class="cut" x="0" y="-10" width="3" height="76" fill="#f3ede4" opacity=".7" transform="skewX(-28)"/>
<g fill="#c8102e" opacity="0.3"><circle cx="705" cy="3" r="0.37"/><circle cx="708.5" cy="10" r="0.37"/><circle cx="705" cy="17" r="0.37"/><circle cx="708.5" cy="24" r="0.37"/><circle cx="705" cy="31" r="0.37"/><circle cx="708.5" cy="38" r="0.37"/><circle cx="705" cy="45" r="0.37"/><circle cx="708.5" cy="52" r="0.37"/><circle cx="712" cy="3" r="0.4"/><circle cx="715.5" cy="10" r="0.4"/><circle cx="712" cy="17" r="0.4"/><circle cx="715.5" cy="24" r="0.4"/><circle cx="712" cy="31" r="0.4"/><circle cx="715.5" cy="38" r="0.4"/><circle cx="712" cy="45" r="0.4"/><circle cx="715.5" cy="52" r="0.4"/><circle cx="719" cy="3" r="0.44"/><circle cx="722.5" cy="10" r="0.44"/><circle cx="719" cy="17" r="0.44"/><circle cx="722.5" cy="24" r="0.44"/><circle cx="719" cy="31" r="0.44"/><circle cx="722.5" cy="38" r="0.44"/><circle cx="719" cy="45" r="0.44"/><circle cx="722.5" cy="52" r="0.44"/><circle cx="726" cy="3" r="0.47"/><circle cx="729.5" cy="10" r="0.47"/><circle cx="726" cy="17" r="0.47"/><circle cx="729.5" cy="24" r="0.47"/><circle cx="726" cy="31" r="0.47"/><circle cx="729.5" cy="38" r="0.47"/><circle cx="726" cy="45" r="0.47"/><circle cx="729.5" cy="52" r="0.47"/><circle cx="733" cy="3" r="0.51"/><circle cx="736.5" cy="10" r="0.51"/><circle cx="733" cy="17" r="0.51"/><circle cx="736.5" cy="24" r="0.51"/><circle cx="733" cy="31" r="0.51"/><circle cx="736.5" cy="38" r="0.51"/><circle cx="733" cy="45" r="0.51"/><circle cx="736.5" cy="52" r="0.51"/><circle cx="740" cy="3" r="0.55"/><circle cx="743.5" cy="10" r="0.55"/><circle cx="740" cy="17" r="0.55"/><circle cx="743.5" cy="24" r="0.55"/><circle cx="740" cy="31" r="0.55"/><circle cx="743.5" cy="38" r="0.55"/><circle cx="740" cy="45" r="0.55"/><circle cx="743.5" cy="52" r="0.55"/><circle cx="747" cy="3" r="0.59"/><circle cx="750.5" cy="10" r="0.59"/><circle cx="747" cy="17" r="0.59"/><circle cx="750.5" cy="24" r="0.59"/><circle cx="747" cy="31" r="0.59"/><circle cx="750.5" cy="38" r="0.59"/><circle cx="747" cy="45" r="0.59"/><circle cx="750.5" cy="52" r="0.59"/><circle cx="754" cy="3" r="0.63"/><circle cx="757.5" cy="10" r="0.63"/><circle cx="754" cy="17" r="0.63"/><circle cx="757.5" cy="24" r="0.63"/><circle cx="754" cy="31" r="0.63"/><circle cx="757.5" cy="38" r="0.63"/><circle cx="754" cy="45" r="0.63"/><circle cx="757.5" cy="52" r="0.63"/><circle cx="761" cy="3" r="0.67"/><circle cx="764.5" cy="10" r="0.67"/><circle cx="761" cy="17" r="0.67"/><circle cx="764.5" cy="24" r="0.67"/><circle cx="761" cy="31" r="0.67"/><circle cx="764.5" cy="38" r="0.67"/><circle cx="761" cy="45" r="0.67"/><circle cx="764.5" cy="52" r="0.67"/><circle cx="768" cy="3" r="0.71"/><circle cx="771.5" cy="10" r="0.71"/><circle cx="768" cy="17" r="0.71"/><circle cx="771.5" cy="24" r="0.71"/><circle cx="768" cy="31" r="0.71"/><circle cx="771.5" cy="38" r="0.71"/><circle cx="768" cy="45" r="0.71"/><circle cx="771.5" cy="52" r="0.71"/><circle cx="775" cy="3" r="0.75"/><circle cx="778.5" cy="10" r="0.75"/><circle cx="775" cy="17" r="0.75"/><circle cx="778.5" cy="24" r="0.75"/><circle cx="775" cy="31" r="0.75"/><circle cx="778.5" cy="38" r="0.75"/><circle cx="775" cy="45" r="0.75"/><circle cx="778.5" cy="52" r="0.75"/><circle cx="782" cy="3" r="0.79"/><circle cx="785.5" cy="10" r="0.79"/><circle cx="782" cy="17" r="0.79"/><circle cx="785.5" cy="24" r="0.79"/><circle cx="782" cy="31" r="0.79"/><circle cx="785.5" cy="38" r="0.79"/><circle cx="782" cy="45" r="0.79"/><circle cx="785.5" cy="52" r="0.79"/><circle cx="789" cy="3" r="0.84"/><circle cx="792.5" cy="10" r="0.84"/><circle cx="789" cy="17" r="0.84"/><circle cx="792.5" cy="24" r="0.84"/><circle cx="789" cy="31" r="0.84"/><circle cx="792.5" cy="38" r="0.84"/><circle cx="789" cy="45" r="0.84"/><circle cx="792.5" cy="52" r="0.84"/><circle cx="796" cy="3" r="0.88"/><circle cx="799.5" cy="10" r="0.88"/><circle cx="796" cy="17" r="0.88"/><circle cx="799.5" cy="24" r="0.88"/><circle cx="796" cy="31" r="0.88"/><circle cx="799.5" cy="38" r="0.88"/><circle cx="796" cy="45" r="0.88"/><circle cx="799.5" cy="52" r="0.88"/><circle cx="803" cy="3" r="0.93"/><circle cx="806.5" cy="10" r="0.93"/><circle cx="803" cy="17" r="0.93"/><circle cx="806.5" cy="24" r="0.93"/><circle cx="803" cy="31" r="0.93"/><circle cx="806.5" cy="38" r="0.93"/><circle cx="803" cy="45" r="0.93"/><circle cx="806.5" cy="52" r="0.93"/><circle cx="810" cy="3" r="0.97"/><circle cx="813.5" cy="10" r="0.97"/><circle cx="810" cy="17" r="0.97"/><circle cx="813.5" cy="24" r="0.97"/><circle cx="810" cy="31" r="0.97"/><circle cx="813.5" cy="38" r="0.97"/><circle cx="810" cy="45" r="0.97"/><circle cx="813.5" cy="52" r="0.97"/><circle cx="817" cy="3" r="1.02"/><circle cx="820.5" cy="10" r="1.02"/><circle cx="817" cy="17" r="1.02"/><circle cx="820.5" cy="24" r="1.02"/><circle cx="817" cy="31" r="1.02"/><circle cx="820.5" cy="38" r="1.02"/><circle cx="817" cy="45" r="1.02"/><circle cx="820.5" cy="52" r="1.02"/><circle cx="824" cy="3" r="1.06"/><circle cx="827.5" cy="10" r="1.06"/><circle cx="824" cy="17" r="1.06"/><circle cx="827.5" cy="24" r="1.06"/><circle cx="824" cy="31" r="1.06"/><circle cx="827.5" cy="38" r="1.06"/><circle cx="824" cy="45" r="1.06"/><circle cx="827.5" cy="52" r="1.06"/><circle cx="831" cy="3" r="1.11"/><circle cx="834.5" cy="10" r="1.11"/><circle cx="831" cy="17" r="1.11"/><circle cx="834.5" cy="24" r="1.11"/><circle cx="831" cy="31" r="1.11"/><circle cx="834.5" cy="38" r="1.11"/><circle cx="831" cy="45" r="1.11"/><circle cx="834.5" cy="52" r="1.11"/><circle cx="838" cy="3" r="1.16"/><circle cx="841.5" cy="10" r="1.16"/><circle cx="838" cy="17" r="1.16"/><circle cx="841.5" cy="24" r="1.16"/><circle cx="838" cy="31" r="1.16"/><circle cx="841.5" cy="38" r="1.16"/><circle cx="838" cy="45" r="1.16"/><circle cx="841.5" cy="52" r="1.16"/><circle cx="845" cy="3" r="1.2"/><circle cx="848.5" cy="10" r="1.2"/><circle cx="845" cy="17" r="1.2"/><circle cx="848.5" cy="24" r="1.2"/><circle cx="845" cy="31" r="1.2"/><circle cx="848.5" cy="38" r="1.2"/><circle cx="845" cy="45" r="1.2"/><circle cx="848.5" cy="52" r="1.2"/><circle cx="852" cy="3" r="1.25"/><circle cx="855.5" cy="10" r="1.25"/><circle cx="852" cy="17" r="1.25"/><circle cx="855.5" cy="24" r="1.25"/><circle cx="852" cy="31" r="1.25"/><circle cx="855.5" cy="38" r="1.25"/><circle cx="852" cy="45" r="1.25"/><circle cx="855.5" cy="52" r="1.25"/><circle cx="859" cy="3" r="1.3"/><circle cx="862.5" cy="10" r="1.3"/><circle cx="859" cy="17" r="1.3"/><circle cx="862.5" cy="24" r="1.3"/><circle cx="859" cy="31" r="1.3"/><circle cx="862.5" cy="38" r="1.3"/><circle cx="859" cy="45" r="1.3"/><circle cx="862.5" cy="52" r="1.3"/><circle cx="866" cy="3" r="1.35"/><circle cx="869.5" cy="10" r="1.35"/><circle cx="866" cy="17" r="1.35"/><circle cx="869.5" cy="24" r="1.35"/><circle cx="866" cy="31" r="1.35"/><circle cx="869.5" cy="38" r="1.35"/><circle cx="866" cy="45" r="1.35"/><circle cx="869.5" cy="52" r="1.35"/><circle cx="873" cy="3" r="1.4"/><circle cx="876.5" cy="10" r="1.4"/><circle cx="873" cy="17" r="1.4"/><circle cx="876.5" cy="24" r="1.4"/><circle cx="873" cy="31" r="1.4"/><circle cx="876.5" cy="38" r="1.4"/><circle cx="873" cy="45" r="1.4"/><circle cx="876.5" cy="52" r="1.4"/><circle cx="880" cy="3" r="1.45"/><circle cx="883.5" cy="10" r="1.45"/><circle cx="880" cy="17" r="1.45"/><circle cx="883.5" cy="24" r="1.45"/><circle cx="880" cy="31" r="1.45"/><circle cx="883.5" cy="38" r="1.45"/><circle cx="880" cy="45" r="1.45"/><circle cx="883.5" cy="52" r="1.45"/><circle cx="887" cy="3" r="1.5"/><circle cx="890.5" cy="10" r="1.5"/><circle cx="887" cy="17" r="1.5"/><circle cx="890.5" cy="24" r="1.5"/><circle cx="887" cy="31" r="1.5"/><circle cx="890.5" cy="38" r="1.5"/><circle cx="887" cy="45" r="1.5"/><circle cx="890.5" cy="52" r="1.5"/><circle cx="894" cy="3" r="1.56"/><circle cx="897.5" cy="10" r="1.56"/><circle cx="894" cy="17" r="1.56"/><circle cx="897.5" cy="24" r="1.56"/><circle cx="894" cy="31" r="1.56"/><circle cx="897.5" cy="38" r="1.56"/><circle cx="894" cy="45" r="1.56"/><circle cx="897.5" cy="52" r="1.56"/></g>
<path d="M0 0 H124 L138.0 28.0 L124 56 H0 Z" fill="#c8102e"/>
<g transform="translate(22.5 35) scale(0.01900)" fill="#f3ede4"><use href="#s90" x="0"/><use href="#s91" x="1053"/><use href="#s92" x="2105"/><use href="#s93" x="3158"/></g>
<g transform="translate(160 35) scale(0.01488)" fill="#f3ede4"><use href="#l94" x="0"/><use href="#l95" x="1140"/><use href="#l96" x="2145"/><use href="#l97" x="3213"/><use href="#l95" x="4839"/><use href="#l98" x="5848"/><use href="#l99" x="6917"/><use href="#l9a" x="7603"/><use href="#l9b" x="8596"/><use href="#l9c" x="9780"/><use href="#l95" x="10942"/></g>
<g transform="translate(580.3 34) scale(0.01150)" fill="#b5b0aa"><use href="#m5d" x="0"/><use href="#m5e" x="774"/><use href="#m5f" x="1548"/><use href="#m5e" x="2322"/><use href="#m510" x="3096"/><use href="#m511" x="3870"/><use href="#m512" x="4643"/><use href="#m513" x="5417"/><use href="#m514" x="7739"/><use href="#m515" x="10061"/><use href="#m516" x="10835"/><use href="#m517" x="11609"/><use href="#m5d" x="12383"/><use href="#m512" x="13157"/><use href="#m510" x="13930"/><use href="#m511" x="14704"/><use href="#m512" x="15478"/><use href="#m513" x="16252"/><use href="#m514" x="18574"/><use href="#m5d" x="20896"/><use href="#m515" x="21670"/><use href="#m518" x="22443"/><use href="#m5d" x="23217"/><use href="#m519" x="23991"/><use href="#m518" x="24765"/></g>
<rect x="0" y="54" width="900" height="2" fill="#c8102e"/>
<rect x="0" y="0" width="900" height="1" fill="#f3ede4" opacity="0.18"/>
</svg>
