<svg xmlns="http://www.w3.org/2000/svg" width="900" height="44" viewBox="0 0 900 44" role="img" aria-label="Status: open to internships, freelance backend work and hackathon teams">
<title>Status: open to internships, freelance backend work and hackathon teams</title>
<style>@keyframes pulse{0%,100%{opacity:1}50%{opacity:.35}}.dot{animation:pulse 2.4s ease-in-out infinite}@keyframes ring{0%{transform:scale(.6);opacity:.9}100%{transform:scale(2.6);opacity:0}}.ring{transform-box:fill-box;transform-origin:center;animation:ring 2.4s ease-out infinite}</style>
<defs><path id="m70" d="M298 12C460 12 551 -82 551 -190C551 -282 497 -335 411 -367L332 -401C269 -424 225 -439 225 -478C225 -516 258 -537 307 -537C371 -537 412 -518 457 -485L532 -578C473 -634 394 -664 315 -664C174 -664 76 -578 76 -470C76 -375 142 -319 215 -292L299 -256C361 -230 400 -218 400 -172C400 -139 371 -115 308 -115C245 -115 184 -143 135 -183L50 -82C120 -20 210 12 298 12Z"/><path id="m71" d="M226 0H374V-528H569V-652H31V-528H226Z"/><path id="m72" d="M244 -330C261 -395 279 -471 295 -540H299C314 -471 334 -395 351 -330L366 -270H229ZM9 0H159L199 -155H396L435 0H591L388 -652H212Z"/><path id="m73" d="M302 12C460 12 536 -82 536 -251V-652H394V-236C394 -158 364 -115 302 -115C240 -115 211 -158 211 -236V-652H64V-251C64 -82 143 12 302 12Z"/><path id="m54" d="M300 12C450 12 555 -113 555 -330C555 -544 450 -667 300 -667C150 -667 45 -544 45 -330C45 -113 150 12 300 12ZM300 -75C209 -75 148 -169 148 -330C148 -488 209 -580 300 -580C391 -580 452 -488 452 -330C452 -169 391 -75 300 -75Z"/><path id="m55" d="M95 0H195V-250H302C444 -250 547 -316 547 -458C547 -605 446 -655 302 -655H95ZM195 -331V-575H292C396 -575 448 -545 448 -458C448 -371 398 -331 292 -331Z"/><path id="m56" d="M109 0H531V-84H209V-300H473V-384H209V-571H521V-655H109Z"/><path id="m57" d="M78 0H174V-314C174 -384 164 -459 160 -527H163L224 -389L415 0H522V-655H426V-343C426 -272 436 -194 440 -128H437L376 -266L185 -655H78Z"/><path id="m58" d="M250 0H350V-571H561V-655H39V-571H250Z"/><path id="m59" d="M90 0H510V-84H350V-571H510V-655H90V-571H250V-84H90Z"/><path id="m5a" d="M92 0H192V-266H299L448 0H561L400 -279C483 -304 538 -365 538 -466C538 -607 438 -655 303 -655H92ZM192 -347V-575H291C387 -575 439 -546 439 -466C439 -386 387 -347 291 -347Z"/><path id="m5b" d="M303 12C452 12 541 -74 541 -179C541 -275 479 -322 397 -354L308 -393C250 -416 194 -437 194 -494C194 -547 240 -580 309 -580C376 -580 424 -558 467 -521L519 -585C468 -635 395 -667 314 -667C184 -667 93 -590 93 -488C93 -392 166 -343 233 -317L325 -276C391 -249 439 -231 439 -167C439 -113 392 -75 309 -75C237 -75 171 -106 121 -153L63 -85C125 -24 209 12 303 12Z"/><path id="m5c" d="M75 0H176V-299H424V0H525V-655H424V-386H176V-655H75Z"/><path id="m5d" d="M300 -256C351 -256 390 -294 390 -349C390 -403 351 -442 300 -442C249 -442 210 -403 210 -349C210 -294 249 -256 300 -256Z"/><path id="m5e" d="M126 0H226V-283H489V-368H226V-571H536V-655H126Z"/><path id="m5f" d="M127 0H541V-84H226V-655H127Z"/><path id="m510" d="M235 -357C256 -428 277 -501 296 -575H300C319 -501 341 -428 362 -357L389 -267H208ZM26 0H128L184 -188H412L468 0H574L358 -655H242Z"/><path id="m511" d="M352 12C439 12 506 -22 558 -83L502 -144C463 -100 419 -75 362 -75C243 -75 165 -172 165 -329C165 -484 243 -580 360 -580C414 -580 455 -558 488 -523L544 -586C504 -628 440 -667 360 -667C188 -667 62 -539 62 -326C62 -111 190 12 352 12Z"/><path id="m512" d="M92 0H303C449 0 551 -62 551 -192C551 -281 497 -333 402 -348V-352C479 -372 516 -431 516 -495C516 -612 421 -655 287 -655H92ZM192 -383V-573H278C371 -573 418 -549 418 -484C418 -417 376 -383 275 -383ZM192 -82V-303H291C397 -303 453 -273 453 -198C453 -117 395 -82 291 -82Z"/><path id="m513" d="M90 0H191V-201L294 -328L472 0H584L356 -403L561 -655H448L194 -342H191V-655H90Z"/><path id="m514" d="M83 0H254C445 0 556 -118 556 -330C556 -543 445 -655 249 -655H83ZM183 -81V-574H243C380 -574 453 -493 453 -330C453 -167 380 -81 243 -81Z"/><path id="m515" d="M105 0H220L277 -248C287 -288 293 -328 299 -368H302C307 -328 315 -288 324 -248L382 0H500L592 -656H488L449 -260C444 -206 442 -169 439 -106H435C424 -169 416 -206 403 -260L347 -488H263L204 -260C192 -205 183 -169 172 -106H169C166 -169 163 -205 158 -260L118 -656H9Z"/><path id="m516" d="M68 0H158V-295C158 -362 149 -486 142 -546H145L185 -405L267 -174H329L412 -405L453 -546H456C451 -486 440 -362 440 -295V0H532V-655H416L331 -388L302 -286H298L269 -388L184 -655H68Z"/><path id="m717" d="M70 0H217V-235H294L419 0H584L437 -261C506 -292 553 -353 553 -449C553 -604 439 -652 301 -652H70ZM217 -352V-535H289C367 -535 408 -513 408 -449C408 -385 367 -352 289 -352Z"/><path id="m718" d="M92 0H534V-124H240V-274H481V-397H240V-528H524V-652H92Z"/><path id="m719" d="M356 12C444 12 517 -21 570 -84L489 -173C457 -138 418 -115 371 -115C273 -115 205 -193 205 -327C205 -458 273 -537 365 -537C413 -537 448 -518 479 -490L560 -581C516 -624 448 -664 365 -664C191 -664 54 -538 54 -322C54 -103 194 12 356 12Z"/><path id="m71a" d="M74 0H526V-124H374V-528H526V-652H74V-528H226V-124H74Z"/><path id="m71b" d="M66 0H207V-231C207 -308 193 -395 186 -467H190L246 -325L383 0H534V-652H393V-421C393 -344 407 -253 414 -184H410L354 -328L217 -652H66Z"/><path id="m71c" d="M343 12C426 12 503 -26 547 -67V-367H320V-247H415V-135C401 -122 376 -115 351 -115C248 -115 196 -193 196 -327C196 -458 260 -537 345 -537C397 -537 427 -518 455 -490L536 -581C494 -623 433 -664 345 -664C176 -664 44 -540 44 -322C44 -103 176 12 343 12Z"/></defs>
<rect width="900" height="44" fill="#c8102e"/>
<path d="M0 0 H128 L139.0 22.0 L128 44 H0 Z" fill="#0b0b0d"/>
<g transform="translate(28.4 27) scale(0.01200)" fill="#f3ede4"><use href="#m70" x="0"/><use href="#m71" x="933"/><use href="#m72" x="1867"/><use href="#m71" x="2800"/><use href="#m73" x="3733"/><use href="#m70" x="4667"/></g>
<g transform="translate(164 27) scale(0.01150)" fill="#f3ede4" opacity="0.92"><use href="#m54" x="0"/><use href="#m55" x="791"/><use href="#m56" x="1583"/><use href="#m57" x="2374"/><use href="#m58" x="3957"/><use href="#m54" x="4748"/><use href="#m59" x="6330"/><use href="#m57" x="7122"/><use href="#m58" x="7913"/><use href="#m56" x="8704"/><use href="#m5a" x="9496"/><use href="#m57" x="10287"/><use href="#m5b" x="11078"/><use href="#m5c" x="11870"/><use href="#m59" x="12661"/><use href="#m55" x="13452"/><use href="#m5b" x="14243"/><use href="#m5d" x="15826"/><use href="#m5e" x="17409"/><use href="#m5a" x="18200"/><use href="#m56" x="18991"/><use href="#m56" x="19783"/><use href="#m5f" x="20574"/><use href="#m510" x="21365"/><use href="#m57" x="22157"/><use href="#m511" x="22948"/><use href="#m56" x="23739"/><use href="#m512" x="25322"/><use href="#m510" x="26113"/><use href="#m511" x="26904"/><use href="#m513" x="27696"/><use href="#m56" x="28487"/><use href="#m57" x="29278"/><use href="#m514" x="30070"/><use href="#m515" x="31652"/><use href="#m54" x="32443"/><use href="#m5a" x="33235"/><use href="#m513" x="34026"/><use href="#m5d" x="35609"/><use href="#m5c" x="37191"/><use href="#m510" x="37983"/><use href="#m511" x="38774"/><use href="#m513" x="39565"/><use href="#m510" x="40357"/><use href="#m58" x="41148"/><use href="#m5c" x="41939"/><use href="#m54" x="42730"/><use href="#m57" x="43522"/><use href="#m58" x="45104"/><use href="#m56" x="45896"/><use href="#m510" x="46687"/><use href="#m516" x="47478"/><use href="#m5b" x="48270"/></g>
<circle class="ring" cx="752" cy="22" r="4" fill="none" stroke="#f3ede4" stroke-width="1.2"/>
<circle class="dot" cx="752" cy="22" r="4" fill="#f3ede4"/>
<g transform="translate(781 27) scale(0.01100)" fill="#f3ede4"><use href="#m717" x="0"/><use href="#m718" x="873"/><use href="#m719" x="1745"/><use href="#m717" x="2618"/><use href="#m73" x="3491"/><use href="#m71a" x="4364"/><use href="#m71" x="5236"/><use href="#m71a" x="6109"/><use href="#m71b" x="6982"/><use href="#m71c" x="7855"/></g>
</svg>
